<svg width="122" height="80" viewBox="0 0 122 80" fill="none" xmlns="http://www.w3.org/2000/svg">
<rect x="35.3457" y="29.6445" width="9.50156" height="20.5234" fill="url(#paint0_linear_146_1645)"/>
<rect x="50.9287" y="21.2837" width="9.50156" height="28.8847" fill="url(#paint1_linear_146_1645)"/>
<rect x="66.1309" y="16.3428" width="9.50156" height="33.8255" fill="url(#paint2_linear_146_1645)"/>
<circle cx="71.0719" cy="9.50156" r="7.79128" stroke="url(#paint3_linear_146_1645)" stroke-width="3.42056"/>
<circle cx="71.0711" cy="9.50179" r="3.80062" fill="url(#paint4_linear_146_1645)"/>
<path d="M1.46066 67.5483V55.2296H6.79293C7.89576 55.2296 8.84606 55.4114 9.64385 55.7751C10.4416 56.1271 11.0576 56.6374 11.4917 57.3061C11.9258 57.9749 12.1428 58.7727 12.1428 59.6995C12.1428 60.6146 11.9258 61.4065 11.4917 62.0753C11.0576 62.7323 10.4416 63.2368 9.64385 63.5887C8.84606 63.9407 7.89576 64.1167 6.79293 64.1167H3.0445L4.31158 62.8672V67.5483H1.46066ZM9.29189 67.5483L6.21219 63.0784H9.25669L12.3716 67.5483H9.29189ZM4.31158 63.184L3.0445 61.8465H6.63455C7.51446 61.8465 8.17146 61.6588 8.60555 61.2834C9.03964 60.8962 9.25669 60.3682 9.25669 59.6995C9.25669 59.019 9.03964 58.4911 8.60555 58.1157C8.17146 57.7402 7.51446 57.5525 6.63455 57.5525H3.0445L4.31158 56.1975V63.184ZM19.9295 67.5483V65.7005L19.7535 65.2958V61.9873C19.7535 61.4007 19.5717 60.9431 19.208 60.6146C18.856 60.2861 18.3104 60.1219 17.5713 60.1219C17.0668 60.1219 16.5682 60.204 16.0755 60.3682C15.5944 60.5208 15.1838 60.7319 14.8436 61.0018L13.8581 59.0836C14.3743 58.7199 14.9961 58.4383 15.7235 58.2389C16.4509 58.0394 17.19 57.9397 17.9409 57.9397C19.3839 57.9397 20.5044 58.2799 21.3022 58.9604C22.0999 59.6409 22.4988 60.7026 22.4988 62.1457V67.5483H19.9295ZM17.0434 67.6891C16.3042 67.6891 15.6707 67.5659 15.1428 67.3196C14.6148 67.0615 14.2101 66.7154 13.9285 66.2813C13.6469 65.8472 13.5061 65.3603 13.5061 64.8206C13.5061 64.2575 13.641 63.7647 13.9109 63.3424C14.1925 62.92 14.6324 62.5915 15.2308 62.3569C15.8291 62.1105 16.6093 61.9873 17.5713 61.9873H20.0879V63.5887H17.8705C17.2252 63.5887 16.7794 63.6943 16.533 63.9055C16.2984 64.1167 16.1811 64.3807 16.1811 64.6974C16.1811 65.0494 16.316 65.331 16.5858 65.5421C16.8674 65.7416 17.2487 65.8413 17.7297 65.8413C18.1873 65.8413 18.5979 65.7357 18.9616 65.5245C19.3253 65.3016 19.5893 64.979 19.7535 64.5566L20.1759 65.8237C19.9764 66.4338 19.6127 66.8972 19.0848 67.214C18.5568 67.5307 17.8764 67.6891 17.0434 67.6891ZM30.7381 57.9397C31.489 57.9397 32.1577 58.0922 32.7443 58.3972C33.3427 58.6905 33.812 59.1481 34.1522 59.7699C34.4924 60.38 34.6625 61.166 34.6625 62.1281V67.5483H31.9172V62.5504C31.9172 61.7878 31.7471 61.2247 31.4069 60.861C31.0784 60.4973 30.6091 60.3155 29.999 60.3155C29.5649 60.3155 29.1719 60.4093 28.8199 60.597C28.4797 60.773 28.2098 61.0487 28.0104 61.4241C27.8227 61.7996 27.7288 62.2806 27.7288 62.8672V67.5483H24.9835V58.0805H27.6056V60.7026L27.1129 59.9107C27.4531 59.2772 27.94 58.7903 28.5735 58.45C29.2071 58.1098 29.9286 57.9397 30.7381 57.9397ZM39.4212 65.6125L39.4916 62.2689L43.9088 58.0805H47.1821L42.9409 62.392L41.5154 63.5535L39.4212 65.6125ZM37.151 67.5483V54.4904H39.8964V67.5483H37.151ZM44.2079 67.5483L41.0051 63.5711L42.7297 61.4417L47.534 67.5483H44.2079ZM53.9461 67.5483V55.2296H59.2784C60.3812 55.2296 61.3315 55.4114 62.1293 55.7751C62.9271 56.1271 63.543 56.6374 63.9771 57.3061C64.4112 57.9749 64.6283 58.7727 64.6283 59.6995C64.6283 60.6146 64.4112 61.4065 63.9771 62.0753C63.543 62.7323 62.9271 63.2368 62.1293 63.5887C61.3315 63.9407 60.3812 64.1167 59.2784 64.1167H55.53L56.797 62.8672V67.5483H53.9461ZM61.7773 67.5483L58.6977 63.0784H61.7422L64.857 67.5483H61.7773ZM56.797 63.184L55.53 61.8465H59.12C59.9999 61.8465 60.6569 61.6588 61.091 61.2834C61.5251 60.8962 61.7422 60.3682 61.7422 59.6995C61.7422 59.019 61.5251 58.4911 61.091 58.1157C60.6569 57.7402 59.9999 57.5525 59.12 57.5525H55.53L56.797 56.1975V63.184ZM71.3922 67.6891C70.3128 67.6891 69.3625 67.4779 68.5413 67.0556C67.7317 66.6332 67.1041 66.0584 66.6583 65.331C66.2124 64.5918 65.9895 63.753 65.9895 62.8144C65.9895 61.8641 66.2066 61.0252 66.6407 60.2979C67.0865 59.5587 67.6907 58.9838 68.4533 58.5732C69.2159 58.1509 70.0782 57.9397 71.0402 57.9397C71.9671 57.9397 72.8001 58.1391 73.5392 58.538C74.29 58.9252 74.8825 59.4883 75.3166 60.2275C75.7507 60.9549 75.9677 61.8289 75.9677 62.8496C75.9677 62.9552 75.9619 63.0784 75.9501 63.2192C75.9384 63.3482 75.9267 63.4714 75.9149 63.5887H68.2245V61.9873H74.4719L73.416 62.4624C73.416 61.9697 73.3163 61.5415 73.1168 61.1778C72.9174 60.8141 72.6417 60.5325 72.2897 60.333C71.9377 60.1219 71.5271 60.0163 71.0578 60.0163C70.5885 60.0163 70.172 60.1219 69.8083 60.333C69.4564 60.5325 69.1807 60.8199 68.9812 61.1954C68.7818 61.5591 68.6821 61.9932 68.6821 62.4976V62.92C68.6821 63.4362 68.7935 63.8938 69.0164 64.2927C69.2511 64.6798 69.5737 64.979 69.9843 65.1902C70.4067 65.3896 70.8994 65.4893 71.4626 65.4893C71.9671 65.4893 72.407 65.4131 72.7825 65.2606C73.1696 65.108 73.5216 64.8793 73.8383 64.5742L75.299 66.1581C74.8649 66.6508 74.3194 67.0321 73.6624 67.302C73.0054 67.5601 72.2486 67.6891 71.3922 67.6891ZM78.1299 67.5483V57.8693C78.1299 56.8017 78.4466 55.9511 79.0802 55.3175C79.7137 54.6723 80.6171 54.3496 81.7903 54.3496C82.1892 54.3496 82.5705 54.3907 82.9342 54.4728C83.3096 54.555 83.6264 54.684 83.8845 54.86L83.163 56.8486C83.0104 56.743 82.8403 56.6609 82.6526 56.6022C82.4649 56.5436 82.2654 56.5142 82.0543 56.5142C81.6554 56.5142 81.3445 56.6315 81.1216 56.8662C80.9104 57.0891 80.8048 57.4293 80.8048 57.8869V58.7668L80.8752 59.9459V67.5483H78.1299ZM76.6692 60.4034V58.2917H83.2334V60.4034H76.6692ZM88.9859 67.6891C87.9769 67.6891 87.0794 67.4779 86.2934 67.0556C85.5191 66.6332 84.9031 66.0584 84.4456 65.331C83.9997 64.5918 83.7768 63.753 83.7768 62.8144C83.7768 61.8641 83.9997 61.0252 84.4456 60.2979C84.9031 59.5587 85.5191 58.9838 86.2934 58.5732C87.0794 58.1509 87.9769 57.9397 88.9859 57.9397C89.9832 57.9397 90.8748 58.1509 91.6609 58.5732C92.4469 58.9838 93.0628 59.5529 93.5087 60.2803C93.9545 61.0076 94.1774 61.8524 94.1774 62.8144C94.1774 63.753 93.9545 64.5918 93.5087 65.331C93.0628 66.0584 92.4469 66.6332 91.6609 67.0556C90.8748 67.4779 89.9832 67.6891 88.9859 67.6891ZM88.9859 65.4365C89.4435 65.4365 89.8541 65.331 90.2178 65.1198C90.5815 64.9086 90.8689 64.6094 91.0801 64.2223C91.2913 63.8234 91.3969 63.3541 91.3969 62.8144C91.3969 62.263 91.2913 61.7937 91.0801 61.4065C90.8689 61.0194 90.5815 60.7202 90.2178 60.509C89.8541 60.2979 89.4435 60.1923 88.9859 60.1923C88.5284 60.1923 88.1177 60.2979 87.754 60.509C87.3903 60.7202 87.097 61.0194 86.8741 61.4065C86.6629 61.7937 86.5574 62.263 86.5574 62.8144C86.5574 63.3541 86.6629 63.8234 86.8741 64.2223C87.097 64.6094 87.3903 64.9086 87.754 65.1198C88.1177 65.331 88.5284 65.4365 88.9859 65.4365ZM96.0124 67.5483V58.0805H98.6346V60.7554L98.265 59.9811C98.5466 59.3123 98.9983 58.8079 99.6201 58.4676C100.242 58.1157 100.999 57.9397 101.89 57.9397V60.4738C101.773 60.4621 101.667 60.4562 101.573 60.4562C101.48 60.4445 101.38 60.4386 101.274 60.4386C100.523 60.4386 99.9134 60.6557 99.4441 61.0898C98.9866 61.5121 98.7578 62.175 98.7578 63.0784V67.5483H96.0124ZM115.665 57.9397C116.416 57.9397 117.079 58.0922 117.654 58.3972C118.24 58.6905 118.698 59.1481 119.026 59.7699C119.367 60.38 119.537 61.166 119.537 62.1281V67.5483H116.791V62.5504C116.791 61.7878 116.633 61.2247 116.316 60.861C115.999 60.4973 115.554 60.3155 114.979 60.3155C114.58 60.3155 114.222 60.4093 113.905 60.597C113.588 60.773 113.342 61.0428 113.166 61.4065C112.99 61.7702 112.902 62.2337 112.902 62.7968V67.5483H110.157V62.5504C110.157 61.7878 109.998 61.2247 109.682 60.861C109.377 60.4973 108.937 60.3155 108.362 60.3155C107.963 60.3155 107.605 60.4093 107.288 60.597C106.971 60.773 106.725 61.0428 106.549 61.4065C106.373 61.7702 106.285 62.2337 106.285 62.7968V67.5483H103.54V58.0805H106.162V60.6674L105.669 59.9107C105.998 59.2654 106.461 58.7785 107.059 58.45C107.67 58.1098 108.362 57.9397 109.136 57.9397C110.004 57.9397 110.761 58.1626 111.406 58.6084C112.063 59.0425 112.497 59.7112 112.709 60.6146L111.741 60.3506C112.057 59.6115 112.562 59.0249 113.254 58.5908C113.958 58.1567 114.762 57.9397 115.665 57.9397Z" fill="#104041"/>
<path d="M1.88443 78.6286C1.56524 78.6286 1.25833 78.5775 0.963698 78.4752C0.673156 78.3688 0.448089 78.2337 0.288496 78.07L0.466503 77.7202C0.617912 77.8675 0.820473 77.9923 1.07419 78.0946C1.33199 78.1928 1.60207 78.2419 1.88443 78.2419C2.15451 78.2419 2.37344 78.2092 2.54122 78.1437C2.71309 78.0741 2.8379 77.9821 2.91565 77.8675C2.99749 77.7529 3.03841 77.6261 3.03841 77.4869C3.03841 77.3191 2.98931 77.1841 2.89109 77.0818C2.79697 76.9795 2.67216 76.8997 2.51666 76.8424C2.36116 76.781 2.18929 76.7278 2.00105 76.6828C1.81282 76.6378 1.62458 76.5907 1.43634 76.5416C1.2481 76.4884 1.07419 76.4189 0.914592 76.3329C0.759091 76.247 0.632235 76.1345 0.534024 75.9953C0.439905 75.8521 0.392845 75.6659 0.392845 75.4368C0.392845 75.224 0.448089 75.0296 0.558577 74.8536C0.673156 74.6736 0.847072 74.5304 1.08032 74.424C1.31358 74.3135 1.6123 74.2582 1.9765 74.2582C2.21794 74.2582 2.45733 74.293 2.69467 74.3626C2.93202 74.428 3.13662 74.5201 3.30849 74.6388L3.15504 75.0009C2.97089 74.8782 2.77447 74.7882 2.56577 74.7309C2.36116 74.6736 2.16269 74.6449 1.97036 74.6449C1.71256 74.6449 1.49977 74.6797 1.33199 74.7493C1.16421 74.8188 1.0394 74.913 0.95756 75.0316C0.879809 75.1462 0.840934 75.2772 0.840934 75.4245C0.840934 75.5923 0.887993 75.7273 0.982113 75.8296C1.08032 75.9319 1.20718 76.0117 1.36268 76.069C1.52227 76.1263 1.69619 76.1774 1.88443 76.2225C2.07267 76.2675 2.25886 76.3166 2.44301 76.3698C2.63124 76.423 2.80311 76.4925 2.95861 76.5785C3.11821 76.6603 3.24506 76.7708 3.33918 76.9099C3.43739 77.0491 3.4865 77.2312 3.4865 77.4562C3.4865 77.6649 3.42921 77.8593 3.31463 78.0394C3.20005 78.2153 3.02409 78.3585 2.78674 78.469C2.55349 78.5754 2.25272 78.6286 1.88443 78.6286ZM7.39797 76.2163H9.66911V76.603H7.39797V76.2163ZM7.44708 78.199H10.0313V78.5918H6.99285V74.2951H9.93919V74.6879H7.44708V78.199ZM15.4819 78.6286C15.1587 78.6286 14.8579 78.5754 14.5796 78.469C14.3054 78.3585 14.0661 78.2051 13.8615 78.0087C13.6609 77.8082 13.5034 77.5769 13.3888 77.3151C13.2783 77.0491 13.2231 76.7585 13.2231 76.4434C13.2231 76.1283 13.2783 75.8398 13.3888 75.5779C13.5034 75.312 13.6609 75.0807 13.8615 74.8843C14.0661 74.6838 14.3054 74.5304 14.5796 74.424C14.8538 74.3135 15.1546 74.2582 15.4819 74.2582C15.8052 74.2582 16.1039 74.3135 16.3781 74.424C16.6523 74.5304 16.8896 74.6818 17.0901 74.8782C17.2948 75.0746 17.4523 75.3058 17.5628 75.5718C17.6774 75.8378 17.7347 76.1283 17.7347 76.4434C17.7347 76.7585 17.6774 77.0491 17.5628 77.3151C17.4523 77.581 17.2948 77.8122 17.0901 78.0087C16.8896 78.2051 16.6523 78.3585 16.3781 78.469C16.1039 78.5754 15.8052 78.6286 15.4819 78.6286ZM15.4819 78.2235C15.7397 78.2235 15.9771 78.1805 16.194 78.0946C16.4149 78.0046 16.6052 77.8798 16.7648 77.7202C16.9285 77.5565 17.0554 77.3682 17.1454 77.1555C17.2354 76.9386 17.2804 76.7012 17.2804 76.4434C17.2804 76.1856 17.2354 75.9503 17.1454 75.7375C17.0554 75.5206 16.9285 75.3324 16.7648 75.1728C16.6052 75.0091 16.4149 74.8843 16.194 74.7984C15.9771 74.7084 15.7397 74.6633 15.4819 74.6633C15.2241 74.6633 14.9847 74.7084 14.7638 74.7984C14.5428 74.8843 14.3505 75.0091 14.1868 75.1728C14.0272 75.3324 13.9003 75.5206 13.8062 75.7375C13.7162 75.9503 13.6712 76.1856 13.6712 76.4434C13.6712 76.6971 13.7162 76.9324 13.8062 77.1493C13.9003 77.3662 14.0272 77.5565 14.1868 77.7202C14.3505 77.8798 14.5428 78.0046 14.7638 78.0946C14.9847 78.1805 15.2241 78.2235 15.4819 78.2235ZM25.3926 78.5918V74.2951H25.767L27.7313 77.6465H27.5348L29.4806 74.2951H29.8551V78.5918H29.4193V74.9764H29.5236L27.7313 78.0455H27.5164L25.7118 74.9764H25.8284V78.5918H25.3926ZM35.6991 78.5918V77.8798L35.6807 77.7631V76.5723C35.6807 76.2982 35.603 76.0874 35.4475 75.9401C35.296 75.7928 35.0689 75.7191 34.7661 75.7191C34.5574 75.7191 34.3589 75.7539 34.1707 75.8235C33.9825 75.893 33.8229 75.9851 33.6919 76.0997L33.4955 75.7744C33.6592 75.6352 33.8556 75.5288 34.0848 75.4552C34.3139 75.3774 34.5554 75.3385 34.8091 75.3385C35.2265 75.3385 35.5477 75.4429 35.7728 75.6516C36.0019 75.8562 36.1165 76.1693 36.1165 76.5907V78.5918H35.6991ZM34.5881 78.6225C34.3467 78.6225 34.1359 78.5836 33.9559 78.5059C33.7799 78.424 33.6449 78.3135 33.5507 78.1744C33.4566 78.0312 33.4096 77.8675 33.4096 77.6833C33.4096 77.5156 33.4484 77.3642 33.5262 77.2291C33.608 77.09 33.739 76.9795 33.919 76.8977C34.1032 76.8117 34.3487 76.7688 34.6556 76.7688H35.7666V77.0941H34.6679C34.3569 77.0941 34.14 77.1493 34.0173 77.2598C33.8986 77.3703 33.8392 77.5074 33.8392 77.6711C33.8392 77.8552 33.9109 78.0025 34.0541 78.113C34.1973 78.2235 34.3978 78.2787 34.6556 78.2787C34.9012 78.2787 35.1119 78.2235 35.2879 78.113C35.4679 77.9984 35.5989 77.8348 35.6807 77.622L35.7789 77.9227C35.6971 78.1355 35.5538 78.3053 35.3492 78.4322C35.1487 78.5591 34.895 78.6225 34.5881 78.6225ZM39.8169 78.5918V75.3692H40.2343V76.247L40.1913 76.0935C40.2813 75.848 40.4328 75.6618 40.6455 75.535C40.8583 75.404 41.1223 75.3385 41.4374 75.3385V75.7621C41.421 75.7621 41.4046 75.7621 41.3883 75.7621C41.3719 75.758 41.3555 75.7559 41.3392 75.7559C40.9995 75.7559 40.7335 75.8603 40.5412 76.069C40.3489 76.2736 40.2527 76.5662 40.2527 76.9468V78.5918H39.8169ZM45.093 77.757L45.1053 77.1984L47.1125 75.3692H47.6465L46.2286 76.7258L45.9831 76.9345L45.093 77.757ZM44.7493 78.5918V74.0372H45.1851V78.5918H44.7493ZM47.2475 78.5918L45.9033 76.9161L46.1856 76.5785L47.7815 78.5918H47.2475ZM52.1954 78.6225C51.8598 78.6225 51.5652 78.5529 51.3115 78.4138C51.0578 78.2706 50.8593 78.0762 50.7161 77.8307C50.5729 77.581 50.5013 77.2966 50.5013 76.9774C50.5013 76.6583 50.5688 76.3759 50.7038 76.1304C50.8429 75.8848 51.0312 75.6925 51.2685 75.5534C51.51 75.4102 51.78 75.3385 52.0788 75.3385C52.3816 75.3385 52.6496 75.4081 52.8829 75.5472C53.1202 75.6823 53.3064 75.8746 53.4415 76.1242C53.5765 76.3698 53.644 76.6542 53.644 76.9774C53.644 76.9979 53.642 77.0204 53.6379 77.045C53.6379 77.0654 53.6379 77.0879 53.6379 77.1125H50.8327V76.7872H53.4046L53.2328 76.9161C53.2328 76.6828 53.1816 76.4762 53.0793 76.2961C52.9811 76.112 52.846 75.9687 52.6742 75.8664C52.5023 75.7641 52.3038 75.713 52.0788 75.713C51.8578 75.713 51.6593 75.7641 51.4834 75.8664C51.3074 75.9687 51.1703 76.112 51.0721 76.2961C50.9739 76.4803 50.9248 76.691 50.9248 76.9283V76.9959C50.9248 77.2414 50.978 77.4583 51.0844 77.6465C51.1949 77.8307 51.3463 77.9759 51.5386 78.0823C51.735 78.1846 51.9581 78.2358 52.2077 78.2358C52.4041 78.2358 52.5862 78.201 52.754 78.1314C52.9258 78.0619 53.0732 77.9555 53.1959 77.8122L53.4415 78.0946C53.2982 78.2665 53.1182 78.3974 52.9013 78.4874C52.6885 78.5775 52.4532 78.6225 52.1954 78.6225ZM58.0667 78.6225C57.7639 78.6225 57.5306 78.5406 57.3669 78.377C57.2032 78.2133 57.1214 77.9821 57.1214 77.6833V74.6572H57.5572V77.6588C57.5572 77.847 57.6043 77.9923 57.6984 78.0946C57.7966 78.1969 57.9357 78.2481 58.1158 78.2481C58.3081 78.2481 58.4677 78.1928 58.5946 78.0823L58.748 78.3954C58.6621 78.4731 58.5577 78.5304 58.435 78.5672C58.3163 78.6041 58.1935 78.6225 58.0667 78.6225ZM56.5444 75.7314V75.3692H58.5393V75.7314H56.5444ZM62.058 78.5918V75.3692H62.4939V78.5918H62.058ZM62.279 74.6572C62.189 74.6572 62.1133 74.6265 62.0519 74.5651C61.9905 74.5038 61.9598 74.4301 61.9598 74.3442C61.9598 74.2582 61.9905 74.1866 62.0519 74.1293C62.1133 74.0679 62.189 74.0372 62.279 74.0372C62.3691 74.0372 62.4448 74.0659 62.5061 74.1232C62.5675 74.1805 62.5982 74.2521 62.5982 74.338C62.5982 74.428 62.5675 74.5038 62.5061 74.5651C62.4488 74.6265 62.3731 74.6572 62.279 74.6572ZM67.8682 75.3385C68.1301 75.3385 68.3592 75.3897 68.5557 75.492C68.7562 75.5902 68.9117 75.7416 69.0222 75.9462C69.1368 76.1508 69.194 76.4086 69.194 76.7196V78.5918H68.7582V76.7626C68.7582 76.423 68.6723 76.1672 68.5004 75.9953C68.3326 75.8194 68.0953 75.7314 67.7884 75.7314C67.5592 75.7314 67.3587 75.7785 67.1869 75.8726C67.0191 75.9626 66.8881 76.0956 66.794 76.2716C66.704 76.4434 66.659 76.6521 66.659 76.8977V78.5918H66.2232V75.3692H66.6406V76.2531L66.573 76.0874C66.6753 75.8542 66.839 75.6721 67.0641 75.5411C67.2892 75.4061 67.5572 75.3385 67.8682 75.3385ZM74.2629 79.8133C73.9682 79.8133 73.6859 79.7703 73.4158 79.6844C73.1457 79.5985 72.9268 79.4757 72.759 79.3161L72.98 78.9846C73.1314 79.1197 73.3176 79.2261 73.5386 79.3038C73.7636 79.3857 74.001 79.4266 74.2506 79.4266C74.6598 79.4266 74.9606 79.3304 75.1529 79.1381C75.3452 78.9499 75.4414 78.6552 75.4414 78.2542V77.4501L75.5028 76.8977L75.4598 76.3452V75.3692H75.8772V78.199C75.8772 78.7555 75.7401 79.1626 75.4659 79.4205C75.1959 79.6824 74.7948 79.8133 74.2629 79.8133ZM74.1831 78.469C73.8762 78.469 73.5999 78.4036 73.3544 78.2726C73.1089 78.1376 72.9145 77.9514 72.7713 77.714C72.6321 77.4767 72.5626 77.2046 72.5626 76.8977C72.5626 76.5907 72.6321 76.3207 72.7713 76.0874C72.9145 75.8501 73.1089 75.6659 73.3544 75.535C73.5999 75.404 73.8762 75.3385 74.1831 75.3385C74.4695 75.3385 74.7273 75.3979 74.9565 75.5166C75.1856 75.6352 75.3677 75.8112 75.5028 76.0444C75.6378 76.2777 75.7053 76.5621 75.7053 76.8977C75.7053 77.2332 75.6378 77.5176 75.5028 77.7509C75.3677 77.9841 75.1856 78.1621 74.9565 78.2849C74.7273 78.4077 74.4695 78.469 74.1831 78.469ZM74.226 78.0823C74.4634 78.0823 74.6741 78.0332 74.8583 77.935C75.0424 77.8327 75.1877 77.6936 75.2941 77.5176C75.4005 77.3376 75.4537 77.1309 75.4537 76.8977C75.4537 76.6644 75.4005 76.4598 75.2941 76.2838C75.1877 76.1079 75.0424 75.9708 74.8583 75.8726C74.6741 75.7703 74.4634 75.7191 74.226 75.7191C73.9928 75.7191 73.782 75.7703 73.5938 75.8726C73.4096 75.9708 73.2644 76.1079 73.158 76.2838C73.0557 76.4598 73.0045 76.6644 73.0045 76.8977C73.0045 77.1309 73.0557 77.3376 73.158 77.5176C73.2644 77.6936 73.4096 77.8327 73.5938 77.935C73.782 78.0332 73.9928 78.0823 74.226 78.0823ZM83.1343 78.5918L85.0986 74.2951H85.5467L87.5109 78.5918H87.0321L85.2275 74.559H85.4116L83.607 78.5918H83.1343ZM83.9078 77.444L84.0428 77.0757H86.541L86.6761 77.444H83.9078ZM91.9912 79.8133C91.6966 79.8133 91.4142 79.7703 91.1442 79.6844C90.8741 79.5985 90.6552 79.4757 90.4874 79.3161L90.7084 78.9846C90.8598 79.1197 91.046 79.2261 91.2669 79.3038C91.492 79.3857 91.7293 79.4266 91.979 79.4266C92.3882 79.4266 92.6889 79.3304 92.8813 79.1381C93.0736 78.9499 93.1698 78.6552 93.1698 78.2542V77.4501L93.2312 76.8977L93.1882 76.3452V75.3692H93.6056V78.199C93.6056 78.7555 93.4685 79.1626 93.1943 79.4205C92.9242 79.6824 92.5232 79.8133 91.9912 79.8133ZM91.9114 78.469C91.6045 78.469 91.3283 78.4036 91.0828 78.2726C90.8373 78.1376 90.6429 77.9514 90.4997 77.714C90.3605 77.4767 90.291 77.2046 90.291 76.8977C90.291 76.5907 90.3605 76.3207 90.4997 76.0874C90.6429 75.8501 90.8373 75.6659 91.0828 75.535C91.3283 75.404 91.6045 75.3385 91.9114 75.3385C92.1979 75.3385 92.4557 75.3979 92.6849 75.5166C92.914 75.6352 93.0961 75.8112 93.2312 76.0444C93.3662 76.2777 93.4337 76.5621 93.4337 76.8977C93.4337 77.2332 93.3662 77.5176 93.2312 77.7509C93.0961 77.9841 92.914 78.1621 92.6849 78.2849C92.4557 78.4077 92.1979 78.469 91.9114 78.469ZM91.9544 78.0823C92.1918 78.0823 92.4025 78.0332 92.5866 77.935C92.7708 77.8327 92.9161 77.6936 93.0225 77.5176C93.1289 77.3376 93.182 77.1309 93.182 76.8977C93.182 76.6644 93.1289 76.4598 93.0225 76.2838C92.9161 76.1079 92.7708 75.9708 92.5866 75.8726C92.4025 75.7703 92.1918 75.7191 91.9544 75.7191C91.7212 75.7191 91.5104 75.7703 91.3222 75.8726C91.138 75.9708 90.9928 76.1079 90.8864 76.2838C90.7841 76.4598 90.7329 76.6644 90.7329 76.8977C90.7329 77.1309 90.7841 77.3376 90.8864 77.5176C90.9928 77.6936 91.138 77.8327 91.3222 77.935C91.5104 78.0332 91.7212 78.0823 91.9544 78.0823ZM98.7038 78.6225C98.3682 78.6225 98.0736 78.5529 97.8199 78.4138C97.5662 78.2706 97.3677 78.0762 97.2245 77.8307C97.0813 77.581 97.0097 77.2966 97.0097 76.9774C97.0097 76.6583 97.0772 76.3759 97.2122 76.1304C97.3513 75.8848 97.5396 75.6925 97.7769 75.5534C98.0184 75.4102 98.2884 75.3385 98.5872 75.3385C98.89 75.3385 99.158 75.4081 99.3913 75.5472C99.6286 75.6823 99.8148 75.8746 99.9499 76.1242C100.085 76.3698 100.152 76.6542 100.152 76.9774C100.152 76.9979 100.15 77.0204 100.146 77.045C100.146 77.0654 100.146 77.0879 100.146 77.1125H97.3411V76.7872H99.913L99.7412 76.9161C99.7412 76.6828 99.69 76.4762 99.5877 76.2961C99.4895 76.112 99.3544 75.9687 99.1826 75.8664C99.0107 75.7641 98.8122 75.713 98.5872 75.713C98.3662 75.713 98.1677 75.7641 97.9918 75.8664C97.8158 75.9687 97.6787 76.112 97.5805 76.2961C97.4823 76.4803 97.4332 76.691 97.4332 76.9283V76.9959C97.4332 77.2414 97.4864 77.4583 97.5928 77.6465C97.7033 77.8307 97.8547 77.9759 98.047 78.0823C98.2434 78.1846 98.4665 78.2358 98.7161 78.2358C98.9125 78.2358 99.0946 78.201 99.2624 78.1314C99.4342 78.0619 99.5816 77.9555 99.7043 77.8122L99.9499 78.0946C99.8066 78.2665 99.6266 78.3974 99.4097 78.4874C99.1969 78.5775 98.9616 78.6225 98.7038 78.6225ZM105.201 75.3385C105.463 75.3385 105.692 75.3897 105.889 75.492C106.089 75.5902 106.245 75.7416 106.355 75.9462C106.47 76.1508 106.527 76.4086 106.527 76.7196V78.5918H106.091V76.7626C106.091 76.423 106.005 76.1672 105.833 75.9953C105.666 75.8194 105.428 75.7314 105.121 75.7314C104.892 75.7314 104.692 75.7785 104.52 75.8726C104.352 75.9626 104.221 76.0956 104.127 76.2716C104.037 76.4434 103.992 76.6521 103.992 76.8977V78.5918H103.556V75.3692H103.974V76.2531L103.906 76.0874C104.008 75.8542 104.172 75.6721 104.397 75.5411C104.622 75.4061 104.89 75.3385 105.201 75.3385ZM111.559 78.6225C111.24 78.6225 110.953 78.5529 110.7 78.4138C110.45 78.2706 110.254 78.0762 110.11 77.8307C109.967 77.581 109.896 77.2966 109.896 76.9774C109.896 76.6542 109.967 76.3698 110.11 76.1242C110.254 75.8787 110.45 75.6864 110.7 75.5472C110.953 75.4081 111.24 75.3385 111.559 75.3385C111.833 75.3385 112.081 75.3917 112.302 75.4981C112.523 75.6045 112.697 75.7641 112.823 75.9769L112.498 76.1979C112.388 76.0342 112.251 75.9135 112.087 75.8357C111.923 75.758 111.745 75.7191 111.553 75.7191C111.324 75.7191 111.117 75.7723 110.933 75.8787C110.749 75.981 110.604 76.1263 110.497 76.3145C110.391 76.5028 110.338 76.7237 110.338 76.9774C110.338 77.2312 110.391 77.4521 110.497 77.6404C110.604 77.8286 110.749 77.9759 110.933 78.0823C111.117 78.1846 111.324 78.2358 111.553 78.2358C111.745 78.2358 111.923 78.1969 112.087 78.1192C112.251 78.0414 112.388 77.9227 112.498 77.7631L112.823 77.9841C112.697 78.1928 112.523 78.3524 112.302 78.4629C112.081 78.5693 111.833 78.6225 111.559 78.6225ZM116.173 79.8133C116.021 79.8133 115.876 79.7887 115.737 79.7396C115.602 79.6905 115.485 79.6169 115.387 79.5187L115.59 79.1933C115.672 79.2711 115.76 79.3304 115.854 79.3713C115.952 79.4164 116.06 79.4389 116.179 79.4389C116.322 79.4389 116.445 79.3979 116.547 79.3161C116.654 79.2384 116.754 79.0992 116.848 78.8987L117.057 78.4261L117.106 78.3585L118.432 75.3692H118.861L117.247 78.9785C117.157 79.1872 117.057 79.3529 116.946 79.4757C116.84 79.5985 116.723 79.6844 116.596 79.7335C116.47 79.7867 116.328 79.8133 116.173 79.8133ZM117.032 78.6839L115.547 75.3692H116.001L117.315 78.3279L117.032 78.6839Z" fill="#104041"/>
<defs>
<linearGradient id="paint0_linear_146_1645" x1="40.0965" y1="29.6445" x2="40.0965" y2="50.1679" gradientUnits="userSpaceOnUse">
<stop stop-color="#104041"/>
<stop offset="0.605" stop-color="#104041"/>
</linearGradient>
<linearGradient id="paint1_linear_146_1645" x1="55.6795" y1="21.2837" x2="55.6795" y2="50.1684" gradientUnits="userSpaceOnUse">
<stop stop-color="#104041"/>
<stop offset="0.605" stop-color="#104041"/>
</linearGradient>
<linearGradient id="paint2_linear_146_1645" x1="70.8816" y1="16.3428" x2="70.8816" y2="50.1683" gradientUnits="userSpaceOnUse">
<stop stop-color="#104041"/>
<stop offset="0.605" stop-color="#104041"/>
</linearGradient>
<linearGradient id="paint3_linear_146_1645" x1="71.0719" y1="0" x2="71.0719" y2="19.0031" gradientUnits="userSpaceOnUse">
<stop offset="0.21" stop-color="#104041"/>
<stop offset="1" stop-color="#104041"/>
</linearGradient>
<linearGradient id="paint4_linear_146_1645" x1="71.0711" y1="5.70117" x2="71.0711" y2="13.3024" gradientUnits="userSpaceOnUse">
<stop stop-color="#104041"/>
<stop offset="1" stop-color="#104041"/>
</linearGradient>
</defs>
</svg>
